<svg id="Logo" xmlns="http://www.w3.org/2000/svg" viewBox="0 0 288.4 158.9"><defs><style>.cls-1{fill:#fff;}.cls-2{fill:#004898;}.cls-3{fill:#ffd51f;}.cls-4{fill:#f6f6f6;}</style></defs><path class="cls-1" d="M74.64,156.32H9.94a6.44,6.44,0,0,1-1.88-.23,7.67,7.67,0,0,1-5.84-7.85V120.63a8,8,0,0,1,2.25-5.85,8.08,8.08,0,0,1,5.85-2.24H13.7c-.53-.54-1-1.07-1.54-1.61a41.81,41.81,0,0,1-9-14.24l-.06-.16a20,20,0,0,1-1.33-5.25,49,49,0,0,1,0-13.17V78l.31-1.59,0-.1a28.83,28.83,0,0,1,3.47-7.77,33.22,33.22,0,0,1,4.85-6l-.81-1A29.7,29.7,0,0,1,4,49.74a34.42,34.42,0,0,1,2.93-24A34,34,0,0,1,20.37,11.87,54.13,54.13,0,0,1,36.43,5.76a89.67,89.67,0,0,1,13-1.82c3.06-.22,3.06-.22,9.21-.41h0c3.37-.07,4.5-.09,5.65-.09l2.08,0A79.87,79.87,0,0,1,86.43,6,64.9,64.9,0,0,1,97.25,9.81l.18-2a4.18,4.18,0,0,1,1-2.61,3.83,3.83,0,0,1,3-1.13h.16L124,4.31l9.89.08,10.26.09,18.22.17L179,4.81h.52c5.16,0,10.5.09,15.75.11a3.73,3.73,0,0,1,2.86,1.17A3.7,3.7,0,0,1,199,9c0,.31-.06.63-.08,1a61.57,61.57,0,0,1,14.61-5.6A66.14,66.14,0,0,1,227.46,2.6l2.13,0c2.37,0,4.5.09,6.5.28,4.89.42,5.61.51,8.28.85l.16,0a66.45,66.45,0,0,1,12.64,2.81,45.74,45.74,0,0,1,16.46,9.25,39.46,39.46,0,0,1,11.28,17.33,3.72,3.72,0,0,0,.14.37,7.15,7.15,0,0,1,.56,2.33c1.43,7.09,1.47,8,1.47,12.26a40.91,40.91,0,0,1-.93,8.78c-.25,1.38-.55,3.1-.93,5.38a2.73,2.73,0,0,1-.1.48,84.41,84.41,0,0,1-9.61,20.21,158.11,158.11,0,0,1-13,17.68c-3.34,4-6.89,7.92-10.8,11.93H265a7.73,7.73,0,0,1,8.05,7.89c0,9.26,0,18.69,0,28a7.74,7.74,0,0,1-7.94,7.86H74.64Zm137.19-8.45c2.66-3,5.37-6.11,8-9.08l1.3-1.48a3.78,3.78,0,0,1,2.86-1.56,3.59,3.59,0,0,1,3.2,2.43l3,6.15.52,1.1,8.65-6.36c1.43-1,2.91-2.14,4.38-3.2l0,0a3.52,3.52,0,0,1,2.15-.79,3.25,3.25,0,0,1,3.2,3c.24,1.89.49,3.78.73,5.67l.48,3.76,2-.54,1-.26,1.87-.51,1.31-.36-.64-3.12c-.46-2.2-.91-4.39-1.36-6.59l-.84-4.09-.9-4.39-4,3.22-10.21,8.28a3.78,3.78,0,0,1-2.5,1.06,3.2,3.2,0,0,1-2.76-1.61,5.53,5.53,0,0,1-.42-.89c-1.5-3.61-3-7.2-4.49-10.8l-.22.22-9.85,10.19-6.31,6.5L208.87,147Zm-28.13-.76,1.67,0c.91-1.33,1.85-2.67,2.75-4s1.64-2.35,2.44-3.53A4.13,4.13,0,0,1,194,137.8l.42,0,3.24.26,2.3.18.25-.54h-2.79a3.29,3.29,0,0,1-3.06-5.21c.27-.5.55-1,.83-1.49.56-1,1.14-2,1.68-3a3.79,3.79,0,0,1,2.31-1.92h-4l-.36.65c-.1.2-.21.39-.32.59l-1.72,3.13q-2.76,5.06-5.54,10.1l-2.21,4ZM99.79,144a10.05,10.05,0,0,0,0,1.57,3.59,3.59,0,0,0,.34,1.31c0,.07.12.23.54.23a1.83,1.83,0,0,0,.46-.07,6.14,6.14,0,0,0,1.2-.52A4.61,4.61,0,0,1,99.79,144Zm-45.53,2c0,.24.08.47.13.7,0,.05.09.44.33.44a2.14,2.14,0,0,0,1-.28A4.46,4.46,0,0,1,54.26,146Zm61.58-1.22a4.88,4.88,0,0,0,.21,1.82c.14.19.32.43,1.07.43l.51,0a5.3,5.3,0,0,0,2-.65,5.21,5.21,0,0,1-1.69-.71,4.43,4.43,0,0,1-1.89-2.49C115.94,143.7,115.88,144.25,115.84,144.75ZM17,143.17l0-.06,0,0Zm56-2.85a3.31,3.31,0,0,1,2.19,1.07c.13-.72.25-1.43.37-2.14.25-1.45.49-2.9.74-4.36s.49-2.87.73-4.31c.31-1.88.64-3.8,1-5.72h-.38c-.19.37-.39.73-.58,1.09l-.29.56-1.24,2.34-4,7.53q-1,2-2.09,3.92h3.6ZM37,140.22a3.51,3.51,0,0,1,2.64,1l.54-3.21c.24-1.47.5-3,.75-4.49s.54-3.11.81-4.63l.45-2.51c.08-.51.18-1,.27-1.56h-.38c-1.13,2.16-2.29,4.33-3.4,6.44l-.09.16-4.65,8.77H37Zm99.31,0a3.88,3.88,0,0,1,2.85,1l1.23-7.3c.37-2.16.73-4.31,1.1-6.46.13-.82.28-1.63.42-2.45l0-.14h-.39l-1.47,2.75c-.77,1.44-1.57,2.94-2.34,4.41s-1.68,3.19-2.49,4.76l-1.81,3.45h2.88Zm-85.66-3.9.42,0a3.47,3.47,0,0,1,1.31.47l.12-.26a3.37,3.37,0,0,1,3.19-1.81l.82,0,.24,0h.2c.72,0,1.57-.2,2.91-1.65A13.42,13.42,0,0,0,62.57,128a7,7,0,0,0,.45-3.12h-8.5c-1,2.72-2,5.56-3,8.45l-1.08,3Zm103.45-11.47-.89,2.52c-.17.47-.34.94-.5,1.42,0,0-1.82,5.17-2.12,6a4.21,4.21,0,0,1,.57,0h5.44a3.06,3.06,0,0,0,2.29-1.09,13,13,0,0,0,3.54-7.61,5.41,5.41,0,0,0,.06-1.23h-8.39ZM17.5,129.67l.08.08c.08-.57.16-1.15.25-1.72l-.51,1.45Zm190-3.62h0Zm-26.83-14.14.45-.65.39-.58c.65-1,1.26-2,1.9-3l1-1.53c.37-.58.75-1.11,1.12-1.63.16-.21.32-.43.47-.65s.32-.52.49-.83a15.85,15.85,0,0,1,.86-1.42l.4-.57c-1.18-.51-2.32-1.07-3.43-1.62l-1.14-.55c-.72-.35-1.45-.68-2.22-1-1-.44-2-.9-3-1.41-.78-.39-1.57-.75-2.41-1.13l-1.42-.64c0,.16-.08.33-.11.5-.18.79-.36,1.6-.59,2.42-.44,1.62-.84,3.2-1.18,4.7-.18.81-.38,1.62-.58,2.39-.25,1-.49,2-.69,2.92-.3,1.46-.67,2.91-1,4.31ZM213.6,96.66c.9,1.24,1.83,2.52,2.74,3.81.58.81,1.14,1.64,1.68,2.44.68,1,1.32,1.94,2,2.87,1.09,1.5,2.14,3,3.21,4.57.33.47.66,1,1,1.43l.38-.24c2.35-1.57,4.25-2.9,6-4.18,3.8-2.79,7.68-5.93,11.53-9.32a128.94,128.94,0,0,0,9.94-9.81,91.43,91.43,0,0,0,6.62-8.14A74.87,74.87,0,0,0,267,65.94a52.2,52.2,0,0,0,3.58-11.4,29.47,29.47,0,0,0,.72-5.84v-.07c0-1.49-.06-2.42-.11-3.34a31.12,31.12,0,0,0-2.56-10.53,22.22,22.22,0,0,0-5.34-7.68,31,31,0,0,0-3.6-3,34.8,34.8,0,0,0-9.13-4.22A46.72,46.72,0,0,0,240.78,18c-2.89-.25-5.46-.37-7.85-.37-1.47,0-2.91.05-4.28.14a60.67,60.67,0,0,0-11,1.79,42.83,42.83,0,0,0-10.38,4.11,33.88,33.88,0,0,0-8.37,6.59,29,29,0,0,0-4.54,6.66,32,32,0,0,0-2.51,6.9l-.11.45a15.8,15.8,0,0,0-.64,4.31A22,22,0,0,0,194,58.36a24.63,24.63,0,0,0,7.15,8,35.64,35.64,0,0,0,9.13,4.7,54.17,54.17,0,0,0,9.25,2.32,64.55,64.55,0,0,0,10.32,1h.12a6.81,6.81,0,0,1,1.25.1,3.35,3.35,0,0,1,2.68,2.21,3.31,3.31,0,0,1-.84,3.36l-1.23,1.31c-.95,1-1.94,2.07-3,3.09-1.25,1.23-2.56,2.42-3.9,3.56a71.69,71.69,0,0,1-7.22,5.43A41.63,41.63,0,0,1,213.12,96Zm-89.39,5.39,5,2.15,2.85,1.2c1.09.46,2.22.93,3.32,1.41l7.28,3.16,2.84,1.24c.7-1.75,1.42-3.54,2.15-5.29.57-1.39,1.16-2.79,1.74-4.15L151,97.94c.11-.28.22-.62.34-1a12.84,12.84,0,0,1,.83-2.1c.37-.72.7-1.5,1-2.33.25-.58.5-1.18.77-1.78.58-1.26,1.1-2.55,1.64-3.91q.41-1,.84-2.1l.94-2.22c.49-1.16,1-2.36,1.46-3.54,1-2.4,1.7-4.23,2.42-5.94.29-.68.58-1.4.86-2.08.37-.92.76-1.86,1.16-2.79,1-2.31,2-4.77,3.31-8,.77-1.92,1.57-3.86,2.35-5.74l.37-.88c1.23-3,2.48-6,3.7-8.87.53-1.28,1.07-2.56,1.6-3.85l1.17-2.78c.91-2.14,1.84-4.36,2.71-6.54.39-1,.8-2,1.19-2.92s.86-2.09,1.28-3.12c.52-1.34,1.11-2.64,1.68-3.9l.36-.79a1.59,1.59,0,0,1,.08-.18l-.1-.12h-.06c-3.24,0-6.52-.07-9.69-.14l-3.95-.08-5.68-.1c-3.3-.05-6.71-.1-10.07-.18-1.65-.05-3.34-.07-5-.09l-3.55,0-1.95,0c-4.15-.08-8.43-.16-12.64-.26-1.14,0-2.32,0-3.45,0-1.47,0-3,0-4.52-.08-2.49-.08-5-.11-7.5-.13h-.84q0,8.91,0,17.84H151a3.78,3.78,0,0,1,3.58,1.56,3.75,3.75,0,0,1-.21,3.89l-1.47,2.93q-1.32,2.63-2.65,5.25l-.56,1.1c-1.6,3.17-3.26,6.44-4.92,9.66L144,63c-.82,1.62-1.68,3.29-2.61,4.93-.5.87-.94,1.8-1.41,2.79-.34.73-.7,1.48-1.09,2.24-1.9,3.65-3.92,7.64-6.16,12.2-.77,1.56-1.54,3.11-2.3,4.67s-1.48,3-2.21,4.48l-.39.78c-.58,1.2-1.18,2.44-1.92,3.66C125.3,99.79,124.77,100.89,124.21,102.05Zm-91-37.2a47.7,47.7,0,0,0-4.81,2.71,39.72,39.72,0,0,0-4.83,3.83A22.24,22.24,0,0,0,19.91,76a14.4,14.4,0,0,0-2.39,7.24c0,.54-.07,1.06-.11,1.56a15.49,15.49,0,0,0,0,3.39,18.19,18.19,0,0,0,2.76,7.48,20.11,20.11,0,0,0,6,5.75,31.91,31.91,0,0,0,6.91,3.3A52.4,52.4,0,0,0,42,106.89a60.16,60.16,0,0,0,7.24.8l2.77.14c1.7.09,3.3.18,4.79.18h0c.46,0,.87,0,1.26,0h.81c2.91,0,5.75-.14,8.91-.45a68,68,0,0,0,10.65-1.89,44.73,44.73,0,0,0,8.37-3.12,30,30,0,0,0,8.14-5.7,21,21,0,0,0,3.86-5.3,23.62,23.62,0,0,0,2.09-5.31c.06-.28.13-.55.2-.83a16.93,16.93,0,0,0,.58-3A12.11,12.11,0,0,0,100,76.1a21.44,21.44,0,0,0-6.36-7.38A37.86,37.86,0,0,0,86,64.09l0,0a3.37,3.37,0,0,1-2.36-2.83,3.32,3.32,0,0,1,2.15-3.52,39.63,39.63,0,0,0,6.75-4.93A29.19,29.19,0,0,0,96,48.73a20.35,20.35,0,0,0,3.23-6.1,14.31,14.31,0,0,0,.41-7.05,14.91,14.91,0,0,0-3.54-7,20.38,20.38,0,0,0-5.8-4.46A38.46,38.46,0,0,0,83,21.27a48.41,48.41,0,0,0-6.9-1.39l-.54-.08a47.73,47.73,0,0,0-6.48-.54c-1.61,0-3.34-.05-5.09-.05-3,0-5.53.07-7.87.23-.8.06-1.6.1-2.37.14-1.66.08-3.23.16-4.79.37-2.62.36-5.41.76-8.15,1.42a50.68,50.68,0,0,0-6,1.73l-.16.06a37.74,37.74,0,0,0-4.58,1.94A24.59,24.59,0,0,0,24,29.34,23,23,0,0,0,21,32.86a14.8,14.8,0,0,0-2.12,5.77,16.25,16.25,0,0,0,.51,7.54,15.66,15.66,0,0,0,2.71,5,20.14,20.14,0,0,0,6.45,5.44,46.07,46.07,0,0,0,4.35,2,3.26,3.26,0,0,1,.25,6.15Z"/><path class="cls-2" d="M4.72,90.94a47,47,0,0,1,0-12.48L5,77.09a25.61,25.61,0,0,1,3.11-7,33.05,33.05,0,0,1,6.16-7.08c.37-.33.38-.52,0-.84A17.5,17.5,0,0,1,12,59.73,26.81,26.81,0,0,1,6.85,49.08a31.12,31.12,0,0,1,15-34.65,51.37,51.37,0,0,1,15.2-5.76A86.67,86.67,0,0,1,49.61,6.91c3-.21,3-.21,9.1-.41,5.07-.09,5.07-.09,7.64-.07A77.71,77.71,0,0,1,85.66,8.91a54.38,54.38,0,0,1,13.53,5.27c.59.33.64.3.71-.41q.24-2.83.49-5.67c.09-1,.18-1,1.1-1l22.45.22,20.15.17L179,7.79c5.42,0,10.85.1,16.28.12.67,0,.86.24.81.88-.1,1.15-.16,2.3-.2,3.45,0,1,0,2,0,3,0,0,.06,0,.09,0l1.56-.95a58.9,58.9,0,0,1,16.75-7,62.58,62.58,0,0,1,13.28-1.7,71.31,71.31,0,0,1,8.3.25c4.94.42,5.58.5,8.34.85a64.08,64.08,0,0,1,12.08,2.68A43.23,43.23,0,0,1,271.65,18a36.2,36.2,0,0,1,10.43,16,5.73,5.73,0,0,1,.55,2.07c1.47,7.27,1.47,7.93,1.47,12,0,4.38-.36,4.87-1.83,13.77-.39,0,.05-.18,0,0A82,82,0,0,1,273,81.36,155,155,0,0,1,260.25,98.7c-4.6,5.51-9.51,10.74-14.64,15.77-.28.28-.87.57-.76.86s.77.18,1.17.18h19a4.79,4.79,0,0,1,5.08,4.92q0,14,0,28a4.8,4.8,0,0,1-5,4.89H10.06a4,4,0,0,1-1.15-.1,4.72,4.72,0,0,1-3.71-5q0-13.81,0-27.61a4.74,4.74,0,0,1,5.12-5.11h10a2.25,2.25,0,0,0,.95-.09,1.76,1.76,0,0,0-.63-.64,59,59,0,0,1-6.27-5.87A39,39,0,0,1,6,95.69,17.68,17.68,0,0,1,4.72,90.94Zm53.43,20A96,96,0,0,0,68,110.5a72,72,0,0,0,11.11-2,47.81,47.81,0,0,0,8.92-3.32A32.94,32.94,0,0,0,97,98.93a23.68,23.68,0,0,0,4.41-6.05,26.62,26.62,0,0,0,2.33-6,25.38,25.38,0,0,0,.86-4.3,15,15,0,0,0-1.92-7.87,24.66,24.66,0,0,0-7.21-8.39,41.19,41.19,0,0,0-8.33-5c-.25-.1-.6-.19-.63-.46s.37-.4.61-.54A43.63,43.63,0,0,0,94.48,55a32.41,32.41,0,0,0,3.87-4.48,23.51,23.51,0,0,0,3.67-7,17.18,17.18,0,0,0,.49-8.48,17.9,17.9,0,0,0-4.2-8.36,23.34,23.34,0,0,0-6.62-5.12,41.1,41.1,0,0,0-7.81-3.13A55.64,55.64,0,0,0,76,16.85a52.9,52.9,0,0,0-6.88-.57c-4.4-.07-8.81-.11-13.21.19-2.46.17-4.91.2-7.36.53a82.9,82.9,0,0,0-8.45,1.47,54.17,54.17,0,0,0-6.35,1.84,41.61,41.61,0,0,0-5.09,2.17,27.22,27.22,0,0,0-6.83,4.78,26,26,0,0,0-3.29,4A17.63,17.63,0,0,0,16,38.15,19.45,19.45,0,0,0,16.57,47a18.94,18.94,0,0,0,3.2,6,23.09,23.09,0,0,0,7.38,6.24,45.85,45.85,0,0,0,4.71,2.21c.15.07.39.1.41.31s-.23.31-.41.4a50.53,50.53,0,0,0-5.12,2.89,43.88,43.88,0,0,0-5.2,4.11,24.89,24.89,0,0,0-4.14,5.16A17.6,17.6,0,0,0,14.54,83a27.72,27.72,0,0,0-.11,5.54,21.12,21.12,0,0,0,3.22,8.68,23,23,0,0,0,6.84,6.6A34.52,34.52,0,0,0,32,107.48a55,55,0,0,0,9.44,2.35,62.62,62.62,0,0,0,7.6.83C52.24,110.79,55.4,111.07,58.15,111ZM274.24,48.57c0-1.47-.06-2.47-.12-3.46a34.43,34.43,0,0,0-2.79-11.52,25.25,25.25,0,0,0-6.06-8.69,31.77,31.77,0,0,0-4-3.28A37.38,37.38,0,0,0,251.4,17a49,49,0,0,0-10.36-2,84,84,0,0,0-12.59-.23,63.28,63.28,0,0,0-11.54,1.88,45.71,45.71,0,0,0-11.09,4.39,37.38,37.38,0,0,0-9.1,7.17,32.34,32.34,0,0,0-5,7.34A35,35,0,0,0,189,43.15a20.27,20.27,0,0,0-.83,5.61,25,25,0,0,0,3.23,11.07,27.5,27.5,0,0,0,8,8.92,39,39,0,0,0,9.88,5.09A57.62,57.62,0,0,0,219,76.29a66.41,66.41,0,0,0,10.9,1.06,3.64,3.64,0,0,1,.74.06c.39.07.54.25.22.59-1.38,1.44-2.72,2.93-4.14,4.33q-1.8,1.77-3.74,3.42a68.59,68.59,0,0,1-6.92,5.19,39.4,39.4,0,0,1-6.54,3.4c-.92.38-.92.47-.35,1.26,1.57,2.2,3.18,4.38,4.74,6.59,1.25,1.76,2.42,3.58,3.69,5.33,1.08,1.49,2.13,3,3.17,4.52.74,1.08,1.5,2.14,2.25,3.21.19.27.4.55.77.29.8-.56,1.66-1,2.46-1.53,2.07-1.38,4.12-2.78,6.12-4.25,4.06-3,8-6.16,11.74-9.49a133.71,133.71,0,0,0,10.17-10,98.65,98.65,0,0,0,6.84-8.4,79.27,79.27,0,0,0,8.58-14.71,56,56,0,0,0,3.78-12A30.61,30.61,0,0,0,274.24,48.57ZM131.7,40.14H151c1.28,0,1.3,0,.73,1.14l-4.11,8.17q-2.73,5.39-5.47,10.75C141,62.3,140,64.42,138.8,66.48c-1,1.66-1.67,3.44-2.55,5.13-2.12,4.06-4.17,8.16-6.19,12.26-1.5,3.06-3,6.1-4.51,9.15-.7,1.42-1.36,2.86-2.19,4.22-1,1.66-1.77,3.45-2.65,5.18-.52,1-.51,1.12.58,1.6q3.34,1.47,6.7,2.91c2,.88,4.11,1.73,6.16,2.62,4,1.71,7.95,3.45,11.92,5.17.9.39,1.06.31,1.41-.58,1-2.37,1.89-4.73,2.87-7.09,1.1-2.66,2.24-5.31,3.35-8,.38-.94.61-2,1.06-2.83.72-1.38,1.23-2.84,1.88-4.25.92-2,1.68-4.07,2.52-6.11s1.65-3.85,2.42-5.8,1.57-3.93,2.39-5.88c.68-1.61,1.32-3.24,2-4.85,1.16-2.67,2.26-5.36,3.34-8,.88-2.2,1.8-4.4,2.71-6.59q2.64-6.36,5.3-12.71c1.3-3.12,2.64-6.22,3.89-9.36.81-2,1.67-4,2.47-6.06.61-1.54,1.31-3.05,2-4.57.88-1.95.75-1.94-.59-3.6a2.27,2.27,0,0,0-2-.89c-4.59,0-9.18-.14-13.76-.22-5.25-.1-10.49-.15-15.73-.28-2.85-.07-5.7-.08-8.55-.13-4.85-.09-9.71-.18-14.57-.3-2.64-.06-5.29,0-7.93-.11-3.5-.13-7-.13-10.51-.17-.93,0-.93,0-.93.94q0,10.92.07,21.84c0,.93.12,1,1.07,1ZM259.79,147.6c0-.2-.07-.4-.11-.6q-1.19-5.75-2.36-11.48-1.27-6.18-2.54-12.35c-.19-.91-.21-.91-.92-.34l-17.25,14c-.72.58-.72.57-1.07-.27q-3-7.14-5.93-14.26c-.27-.65-.35-.65-.85-.14L216.1,135.24l-12.16,12.53c-.5.52-.46.67.23.88l8,2.45a.82.82,0,0,0,1-.28q5.06-5.79,10.15-11.54c.67-.76.68-.76,1.14.19q2.34,4.84,4.66,9.7c.37.77.38.77,1.05.28l10.42-7.65,4.81-3.52c.26-.19.59-.5.68.17q.76,6,1.54,12c.1.79.2.86.93.65,1.8-.51,3.61-1,5.42-1.49s3.48-.94,5.22-1.43C259.5,148.07,259.86,148,259.79,147.6Zm-78.3-32.71c.34-.11.83,0,1.1-.42.45-.72.95-1.42,1.43-2.12,1-1.5,1.93-3.08,2.9-4.62.47-.74,1-1.44,1.51-2.15s.84-1.52,1.34-2.24c.7-1,1.37-2,2-3a.44.44,0,0,0-.18-.73,16.92,16.92,0,0,0-1.79-.93c-1.84-.71-3.59-1.63-5.37-2.48s-3.49-1.56-5.19-2.42c-2-1-4.15-1.82-6.13-2.93-.54-.31-1-.18-1.17.28-.19.62-.38,1.25-.54,1.88-.31,1.26-.56,2.54-.9,3.79-.44,1.61-.85,3.22-1.21,4.83-.4,1.8-.91,3.56-1.28,5.37-.49,2.34-1.16,4.65-1.75,7-.14.54,0,.89.63.9l.48,0Zm21.17,8.17v0c-2.82,0-5.65,0-8.47,0a1,1,0,0,0-1,.59c-.39.74-.8,1.46-1.2,2.19L184.7,139.1q-2.74,5-5.5,10c-.43.78-.38.85.49.87,2.08.05,4.16.06,6.24.17a1.56,1.56,0,0,0,1.54-.81c1.83-2.68,3.71-5.33,5.55-8a1.15,1.15,0,0,1,1.19-.56c2.32.2,4.64.35,7,.55a.8.8,0,0,0,.94-.54c.81-1.78,1.65-3.56,2.47-5.34.3-.66.27-.71-.47-.71h-6.65c-.8,0-.85-.09-.46-.79.84-1.52,1.71-3,2.53-4.55a.87.87,0,0,1,.91-.53c2.75.07,5.51.09,8.27.18a1,1,0,0,0,1.12-.69c.6-1.53,1.23-3.05,1.84-4.58.24-.62.17-.73-.46-.73Zm-187.27,8.7a.61.61,0,0,1,.13.63c-.47,3.31-.95,6.61-1.43,9.92-.3,2.06-.61,4.11-.93,6.17-.09.59.11.84.72.82a18.39,18.39,0,0,1,2.1,0,1.24,1.24,0,0,0,1.44-.81,8,8,0,0,1,.59-1.07c2.12-3.8,4.23-7.62,6.36-11.42a34.56,34.56,0,0,1,2.24-3.74,3.37,3.37,0,0,1-.18.79q-1.79,5.13-3.58,10.24c-.61,1.74-1.24,3.49-1.85,5.24-.22.65-.15.75.55.76.86,0,1.72,0,2.58,0a.81.81,0,0,0,.9-.62c.69-2,1.41-4,2.12-6q1.92-5.49,3.85-11,1.57-4.49,3.16-9c.27-.76.2-.85-.62-.85s-1.86,0-2.78,0a1,1,0,0,0-1,.6c-.46.86-.95,1.7-1.42,2.54q-3.86,6.83-7.71,13.63a18.44,18.44,0,0,1-1.45,2.4c-.22-.21-.15-.42-.13-.61.32-2.19.65-4.38,1-6.57.55-3.77,1.09-7.55,1.65-11.33.08-.48-.1-.66-.57-.66H17.4a.65.65,0,0,0-.7.5c-.3.83-.61,1.65-.9,2.48-1.28,3.59-2.54,7.19-3.82,10.79-1.07,3-2.15,6-3.22,9.06-.45,1.28-.88,2.56-1.3,3.85-.07.22-.25.48,0,.68a1.62,1.62,0,0,0,2-.68c.28-.79.5-1.6.78-2.38,1.13-3.24,2.28-6.48,3.42-9.72C14.29,134.9,14.83,133.36,15.39,131.76Zm43.22-9.88h0c-1.86,0-3.71,0-5.57,0a.72.72,0,0,0-.82.53q-1.72,4.95-3.48,9.9-2,5.55-4,11.09c-.63,1.76-1.22,3.54-1.84,5.3-.17.47-.08.68.44.68,1,0,2,0,2.92,0a.94.94,0,0,0,1-.76c.31-1,.66-2,1-3l2-5.49c.12-.32,0-.91.44-.86s.21.62.22.95a40.11,40.11,0,0,0,.57,7,3.34,3.34,0,0,0,3.32,2.81A5.36,5.36,0,0,0,58,148.91a24,24,0,0,0,5.47-6.12,1,1,0,0,0,.21-.56q-.1-1.48-.27-3c-.05-.38-.25-.4-.48-.11-.39.49-.76,1-1.17,1.49a14.69,14.69,0,0,1-3.12,3.08,2,2,0,0,1-3.13-1.1,8.79,8.79,0,0,1-.43-3.34c0-1.69-.2-1.61,1.51-1.51A6.67,6.67,0,0,0,62,135.16a16.26,16.26,0,0,0,3.38-6.28,9.1,9.1,0,0,0,.39-5.27c-.35-1.24-.81-1.79-2.17-1.75C62,121.92,60.28,121.88,58.61,121.88Zm29.25,8c0,.31,0,.42,0,.53l-.51,6.14c-.16,1.84-.33,3.69-.5,5.53q-.27,3.24-.55,6.48c0,.54.11.78.7.77,1.4,0,2.8,0,4.2,0a.81.81,0,0,0,.89-.65c.22-.73.49-1.45.75-2.18,1.18-3.27,2.38-6.53,3.53-9.8,1.55-4.38,3.07-8.77,4.6-13.16.6-1.71.54-1.78-1.33-1.71a1,1,0,0,0-1,.78c-.32,1.08-.76,2.13-1.13,3.19-1.65,4.75-3.4,9.47-4.94,14.27a4.21,4.21,0,0,1-.8,1.66c0-.87.07-1.59.13-2.3.25-3,.52-6,.77-9,.22-2.59.41-5.18.65-7.76,0-.55-.12-.73-.66-.72-1.26,0-2.53,0-3.8,0a1.1,1.1,0,0,0-1.26.9c-1,2.82-2,5.62-3,8.43-.5,1.43-1.14,2.81-1.59,4.24-.77,2.45-1.69,4.84-2.51,7.28q-1,3-2.07,5.93c-.18.51,0,.73.49.72s.86,0,1.28,0a.88.88,0,0,0,.94-.71c.59-1.75,1.18-3.5,1.79-5.25,1.34-3.88,2.69-7.77,4.06-11.64A5,5,0,0,1,87.86,129.85Zm25,14.83a5.85,5.85,0,0,0,.8,3.68,4.33,4.33,0,0,0,4.3,1.56,8.75,8.75,0,0,0,5.37-2.77,23.2,23.2,0,0,0,5.09-8.39c1.85-5.09,3.62-10.21,5.41-15.32.56-1.6.54-1.59-1.18-1.57a.8.8,0,0,0-.91.6c-1.29,3.71-2.61,7.41-3.93,11.12a39.68,39.68,0,0,1-2.52,6.2,7.41,7.41,0,0,1-3.11,3.3,2.57,2.57,0,0,1-2.65,0c-.83-.53-.78-1.41-.75-2.25a16.23,16.23,0,0,1,1.1-4.67c1.58-4.51,3.21-9,4.82-13.52.25-.68.19-.81-.54-.83-1.21,0-2.43,0-3.65,0a.61.61,0,0,0-.68.44c-.14.45-.33.89-.48,1.34-1.74,5.22-3.72,10.36-5.4,15.61A22.56,22.56,0,0,0,112.87,144.68Zm-.14-9.22c-1.62.8-2.8,1.7-3.25,3.5a6.64,6.64,0,0,1-4.7,4.8,1.75,1.75,0,0,1-2.29-1,4.49,4.49,0,0,1-.27-1.93,23.89,23.89,0,0,1,2.46-8.47,15,15,0,0,1,3.45-5,2.87,2.87,0,0,1,1.65-.87,2.25,2.25,0,0,1,2.68,2.27,15.19,15.19,0,0,1,0,2.78c0,.19-.15.43.2.45a3.75,3.75,0,0,0,2-1.59c.13-.52.28-1,.37-1.58a10.69,10.69,0,0,0,0-5,3.55,3.55,0,0,0-2.93-2.59,5.36,5.36,0,0,0-4.12.91c-3.55,2.38-5.8,5.82-7.64,9.56a37.09,37.09,0,0,0-2.89,8.23,18,18,0,0,0-.51,6,6.53,6.53,0,0,0,.67,2.39A3.72,3.72,0,0,0,102,149.9a10.11,10.11,0,0,0,3.64-2.05c.22-.18.46-.59.69-.44s-.08.55-.1.84a4.21,4.21,0,0,1-.11.6.35.35,0,0,0,.25.42,1.48,1.48,0,0,0,1.93-.92c1.1-3.15,2.23-6.29,3.32-9.45A26.68,26.68,0,0,0,112.73,135.46ZM158,121.88c-1.76,0-3.52,0-5.29,0a.94.94,0,0,0-1.06.77c-.58,1.74-1.21,3.45-1.81,5.18q-2.4,6.8-4.79,13.61-1.25,3.51-2.48,7c-.26.74-.2.84.56.85s1.58,0,2.37,0a1,1,0,0,0,1.15-.82c.52-1.61,1.1-3.2,1.66-4.79s1.26-3.44,1.83-5.17c.17-.55.41-.78,1-.78,1.76,0,3.52,0,5.28,0a6.09,6.09,0,0,0,4.54-2,16.08,16.08,0,0,0,4.37-9.27,7,7,0,0,0-.11-3,1.93,1.93,0,0,0-2.19-1.67Zm17-.13h-5.35c-.37,0-.64,0-.79.47-.89,2.34-1.67,4.72-2.49,7.08-1.15,3.33-2.33,6.65-3.45,10-1,3.07-2.15,6.12-3.24,9.18-.18.51-.09.75.51.74,3.57,0,7.14,0,10.72,0a.82.82,0,0,0,.88-.66c.36-1.05.74-2.09,1.11-3.13s.28-1.05-.72-1.05h-5.9c-.9,0-1-.18-.74-1,.57-1.6,1.16-3.19,1.68-4.8a1,1,0,0,1,1.17-.83c2,0,4,0,6,0a.93.93,0,0,0,1-.74c.32-1,.71-2,1.1-3.05.32-.85.27-.95-.61-.95h-5.56c-.89,0-1-.1-.7-.91.51-1.55,1.07-3.08,1.55-4.63a1.05,1.05,0,0,1,1.21-.87c2.14,0,4.29,0,6.44,0a.8.8,0,0,0,.89-.63c.37-1.16.8-2.3,1.19-3.46.25-.72.2-.78-.55-.78ZM70,143.28h0c.81,0,1.63,0,2.44,0,.55,0,.7.15.59.71-.31,1.53-.54,3.07-.84,4.6-.11.53.08.7.58.7h3.46c.47,0,.66-.21.73-.68.74-4.4,1.5-8.81,2.24-13.22s1.44-8.55,2.18-12.82c.09-.52,0-.71-.57-.7-1.5,0-3,0-4.48,0a.81.81,0,0,0-.81.49c-.46.92-1,1.83-1.44,2.75-1.75,3.29-3.49,6.59-5.24,9.87-2.25,4.23-4.53,8.44-6.75,12.68-.9,1.71-1.2,1.63,1,1.64a1,1,0,0,0,1-.59c.83-1.65,1.71-3.28,2.56-4.92a.84.84,0,0,1,.86-.52C68.32,143.29,69.13,143.28,70,143.28Zm64-.08h2.31c.89,0,1,.11.77,1-.29,1.41-.55,2.84-.82,4.25-.1.52,0,.84.63.83H140a.79.79,0,0,0,.91-.77c.32-2,.69-4,1-5.94.83-4.88,1.64-9.76,2.47-14.64.29-1.73.61-3.46.9-5.2.12-.73,0-.86-.69-.86-1.41,0-2.81,0-4.21,0a1,1,0,0,0-1,.57c-1.45,2.73-2.91,5.45-4.36,8.19-1.62,3.08-3.21,6.17-4.83,9.24q-2.3,4.35-4.61,8.68c-.29.56-.21.72.42.74.38,0,.77,0,1.15,0a.77.77,0,0,0,.76-.46c.88-1.7,1.8-3.38,2.67-5.09a.84.84,0,0,1,.84-.54C132.31,143.21,133.15,143.21,134,143.2Zm-99.53,0h0c.81,0,1.63,0,2.44,0,.54,0,.8.1.68.73-.29,1.5-.53,3-.81,4.53-.11.56,0,.86.66.84,1,0,2.08,0,3.12,0a.74.74,0,0,0,.86-.73c.34-2.16.73-4.32,1.1-6.48.45-2.67.89-5.34,1.35-8,.4-2.38.83-4.76,1.25-7.14.25-1.42.5-2.85.74-4.27.08-.46,0-.8-.59-.79-1.49,0-3,0-4.48,0a.79.79,0,0,0-.78.52q-2,3.84-4.05,7.66-3.63,6.85-7.27,13.71c-.82,1.55-1.66,3.1-2.48,4.66-.13.25-.35.54,0,.79a2.26,2.26,0,0,0,2.43-.63c.86-1.62,1.72-3.23,2.55-4.87a.82.82,0,0,1,.85-.51Z"/><path class="cls-3" d="M58.15,111c-2.75.11-5.91-.17-9.07-.3a62.62,62.62,0,0,1-7.6-.83A55,55,0,0,1,32,107.48a34.52,34.52,0,0,1-7.55-3.62,23,23,0,0,1-6.84-6.6,21.12,21.12,0,0,1-3.22-8.68A27.72,27.72,0,0,1,14.54,83a17.6,17.6,0,0,1,2.86-8.7,24.89,24.89,0,0,1,4.14-5.16,43.88,43.88,0,0,1,5.2-4.11,50.53,50.53,0,0,1,5.12-2.89c.18-.09.42-.16.41-.4s-.26-.24-.41-.31a45.85,45.85,0,0,1-4.71-2.21A23.09,23.09,0,0,1,19.77,53a18.94,18.94,0,0,1-3.2-6A19.45,19.45,0,0,1,16,38.15a17.63,17.63,0,0,1,2.57-6.91,26,26,0,0,1,3.29-4,27.22,27.22,0,0,1,6.83-4.78,41.61,41.61,0,0,1,5.09-2.17,54.17,54.17,0,0,1,6.35-1.84A82.9,82.9,0,0,1,48.56,17c2.45-.33,4.9-.36,7.36-.53,4.4-.3,8.81-.26,13.21-.19a52.9,52.9,0,0,1,6.88.57,55.64,55.64,0,0,1,7.87,1.57,41.1,41.1,0,0,1,7.81,3.13,23.34,23.34,0,0,1,6.62,5.12,17.9,17.9,0,0,1,4.2,8.36,17.18,17.18,0,0,1-.49,8.48,23.51,23.51,0,0,1-3.67,7A32.41,32.41,0,0,1,94.48,55a43.63,43.63,0,0,1-7.36,5.37c-.24.14-.65.19-.61.54s.38.36.63.46a41.19,41.19,0,0,1,8.33,5,24.66,24.66,0,0,1,7.21,8.39,15,15,0,0,1,1.92,7.87,25.38,25.38,0,0,1-.86,4.3,26.62,26.62,0,0,1-2.33,6A23.68,23.68,0,0,1,97,98.93a32.94,32.94,0,0,1-8.94,6.27,47.81,47.81,0,0,1-8.92,3.32,72,72,0,0,1-11.11,2A96,96,0,0,1,58.15,111Zm-.22-15.09a16.54,16.54,0,0,0,7.44-1.68,11.4,11.4,0,0,0,6.17-8.8,17.51,17.51,0,0,0,0-4.85,15.4,15.4,0,0,0-2.42-7.15,9.06,9.06,0,0,0-7.38-4,20.25,20.25,0,0,0-6.68.92,13.76,13.76,0,0,0-7.62,4.85,9.87,9.87,0,0,0-2,7.2,19.76,19.76,0,0,0,2.11,6.82A13.64,13.64,0,0,0,51,93.41,10.52,10.52,0,0,0,57.93,95.87ZM46.79,41.31A18.23,18.23,0,0,0,49.59,50,9.4,9.4,0,0,0,55,54a13.92,13.92,0,0,0,8-.42c5-1.59,7.58-5.36,8.2-10.19A17.43,17.43,0,0,0,71,37.71a8.93,8.93,0,0,0-8.17-7.55,20.83,20.83,0,0,0-8,.83,11.4,11.4,0,0,0-5.42,3.19A10,10,0,0,0,46.79,41.31Z"/><path class="cls-3" d="M274.24,48.57a30.61,30.61,0,0,1-.76,6.51,56,56,0,0,1-3.78,12,79.27,79.27,0,0,1-8.58,14.71,98.65,98.65,0,0,1-6.84,8.4,133.71,133.71,0,0,1-10.17,10c-3.78,3.33-7.68,6.51-11.74,9.49-2,1.47-4.05,2.87-6.12,4.25-.8.54-1.66,1-2.46,1.53-.37.26-.58,0-.77-.29-.75-1.07-1.51-2.13-2.25-3.21-1-1.51-2.09-3-3.17-4.52-1.27-1.75-2.44-3.57-3.69-5.33-1.56-2.21-3.17-4.39-4.74-6.59-.57-.79-.57-.88.35-1.26a39.4,39.4,0,0,0,6.54-3.4A68.59,68.59,0,0,0,223,85.75q1.94-1.65,3.74-3.42c1.42-1.4,2.76-2.89,4.14-4.33.32-.34.17-.52-.22-.59a3.64,3.64,0,0,0-.74-.06A66.41,66.41,0,0,1,219,76.29a57.62,57.62,0,0,1-9.76-2.45,39,39,0,0,1-9.88-5.09,27.5,27.5,0,0,1-8-8.92,25,25,0,0,1-3.23-11.07,20.27,20.27,0,0,1,.83-5.61,35,35,0,0,1,2.75-7.55,32.34,32.34,0,0,1,5-7.34,37.38,37.38,0,0,1,9.1-7.17,45.71,45.71,0,0,1,11.09-4.39,63.28,63.28,0,0,1,11.54-1.88,84,84,0,0,1,12.59.23,49,49,0,0,1,10.36,2,37.38,37.38,0,0,1,9.91,4.59,31.77,31.77,0,0,1,4,3.28,25.25,25.25,0,0,1,6.06,8.69,34.43,34.43,0,0,1,2.79,11.52C274.18,46.1,274.21,47.1,274.24,48.57Zm-54.3-4a20.4,20.4,0,0,0,2.62,9.88,14.42,14.42,0,0,0,8.22,6.66,22.16,22.16,0,0,0,7.76.91,1.24,1.24,0,0,0,1.22-.77A42.45,42.45,0,0,0,241.49,57a27.76,27.76,0,0,0,1.79-11.62,16.47,16.47,0,0,0-4-9.91,8,8,0,0,0-6-2.74,17.87,17.87,0,0,0-4.49.88,12,12,0,0,0-5.6,2.88A10.38,10.38,0,0,0,219.94,44.61Z"/><path class="cls-3" d="M131.7,40.14H112.23c-1,0-1.07-.11-1.07-1q0-10.92-.07-21.84c0-1,0-1,.93-.94,3.5,0,7,0,10.51.17,2.64.09,5.29.05,7.93.11,4.86.12,9.72.21,14.57.3,2.85.05,5.7.06,8.55.13,5.24.13,10.48.18,15.73.28,4.58.08,9.17.23,13.76.22a2.27,2.27,0,0,1,2,.89c1.34,1.66,1.47,1.65.59,3.6-.68,1.52-1.38,3-2,4.57-.8,2-1.66,4-2.47,6.06-1.25,3.14-2.59,6.24-3.89,9.36q-2.66,6.36-5.3,12.71c-.91,2.19-1.83,4.39-2.71,6.59-1.08,2.69-2.18,5.38-3.34,8-.69,1.61-1.33,3.24-2,4.85-.82,2-1.61,3.91-2.39,5.88S160,84,159.16,85.89,157.56,90,156.64,92c-.65,1.41-1.16,2.87-1.88,4.25-.45.86-.68,1.89-1.06,2.83-1.11,2.66-2.25,5.31-3.35,8-1,2.36-1.92,4.72-2.87,7.09-.35.89-.51,1-1.41.58-4-1.72-7.94-3.46-11.92-5.17-2.05-.89-4.11-1.74-6.16-2.62q-3.36-1.44-6.7-2.91c-1.09-.48-1.1-.58-.58-1.6.88-1.73,1.65-3.52,2.65-5.18.83-1.36,1.49-2.8,2.19-4.22,1.5-3,3-6.09,4.51-9.15,2-4.1,4.07-8.2,6.19-12.26.88-1.69,1.6-3.47,2.55-5.13,1.18-2.06,2.22-4.18,3.31-6.29q2.74-5.36,5.47-10.75l4.11-8.17c.57-1.12.55-1.14-.73-1.14H131.7Z"/><path class="cls-4" d="M259.79,147.6c.07.44-.29.47-.56.54-1.74.49-3.48,1-5.22,1.43s-3.62,1-5.42,1.49c-.73.21-.83.14-.93-.65q-.76-6-1.54-12c-.09-.67-.42-.36-.68-.17l-4.81,3.52-10.42,7.65c-.67.49-.68.49-1.05-.28q-2.32-4.84-4.66-9.7c-.46-.95-.47-.95-1.14-.19q-5.09,5.76-10.15,11.54a.82.82,0,0,1-1,.28l-8-2.45c-.69-.21-.73-.36-.23-.88l12.16-12.53,12.66-13.09c.5-.51.58-.51.85.14q3,7.13,5.93,14.26c.35.84.35.85,1.07.27l17.25-14c.71-.57.73-.57.92.34q1.28,6.18,2.54,12.35,1.17,5.74,2.36,11.48C259.72,147.2,259.75,147.4,259.79,147.6Z"/><path class="cls-3" d="M181.49,114.89H167.4l-.48,0c-.62,0-.77-.36-.63-.9.59-2.32,1.26-4.63,1.75-7,.37-1.81.88-3.57,1.28-5.37.36-1.61.77-3.22,1.21-4.83.34-1.25.59-2.53.9-3.79.16-.63.35-1.26.54-1.88.15-.46.63-.59,1.17-.28,2,1.11,4.11,1.91,6.13,2.93,1.7.86,3.47,1.58,5.19,2.42S188,98,189.83,98.68a16.92,16.92,0,0,1,1.79.93.44.44,0,0,1,.18.73c-.66,1-1.33,2-2,3-.5.72-.85,1.53-1.34,2.24s-1,1.41-1.51,2.15c-1,1.54-1.88,3.12-2.9,4.62-.48.7-1,1.4-1.43,2.12C182.32,114.9,181.83,114.78,181.49,114.89Z"/><path class="cls-4" d="M202.66,123.06h8.55c.63,0,.7.11.46.73-.61,1.53-1.24,3-1.84,4.58a1,1,0,0,1-1.12.69c-2.76-.09-5.52-.11-8.27-.18a.87.87,0,0,0-.91.53c-.82,1.52-1.69,3-2.53,4.55-.39.7-.34.79.46.79h6.65c.74,0,.77.05.47.71-.82,1.78-1.66,3.56-2.47,5.34a.8.8,0,0,1-.94.54c-2.32-.2-4.64-.35-7-.55a1.15,1.15,0,0,0-1.19.56c-1.84,2.68-3.72,5.33-5.55,8a1.56,1.56,0,0,1-1.54.81c-2.08-.11-4.16-.12-6.24-.17-.87,0-.92-.09-.49-.87q2.75-5,5.5-10L192,125.86c.4-.73.81-1.45,1.2-2.19a1,1,0,0,1,1-.59c2.82,0,5.65,0,8.47,0Z"/><path class="cls-3" d="M15.39,131.76c-.56,1.6-1.1,3.14-1.65,4.69-1.14,3.24-2.29,6.48-3.42,9.72-.28.78-.5,1.59-.78,2.38a1.62,1.62,0,0,1-2,.68c-.29-.2-.11-.46,0-.68.42-1.29.85-2.57,1.3-3.85,1.07-3,2.15-6,3.22-9.06,1.28-3.6,2.54-7.2,3.82-10.79.29-.83.6-1.65.9-2.48a.65.65,0,0,1,.7-.5h3.67c.47,0,.65.18.57.66-.56,3.78-1.1,7.56-1.65,11.33-.32,2.19-.65,4.38-1,6.57,0,.19-.09.4.13.61a18.44,18.44,0,0,0,1.45-2.4q3.87-6.81,7.71-13.63c.47-.84,1-1.68,1.42-2.54a1,1,0,0,1,1-.6c.92,0,1.85,0,2.78,0s.89.09.62.85q-1.57,4.47-3.16,9-1.93,5.49-3.85,11c-.71,2-1.43,4-2.12,6a.81.81,0,0,1-.9.62c-.86,0-1.72,0-2.58,0-.7,0-.77-.11-.55-.76.61-1.75,1.24-3.5,1.85-5.24q1.8-5.11,3.58-10.24a3.37,3.37,0,0,0,.18-.79A34.56,34.56,0,0,0,24.37,136c-2.13,3.8-4.24,7.62-6.36,11.42a8,8,0,0,0-.59,1.07,1.24,1.24,0,0,1-1.44.81,18.39,18.39,0,0,0-2.1,0c-.61,0-.81-.23-.72-.82.32-2.06.63-4.11.93-6.17.48-3.31,1-6.61,1.43-9.92A.61.61,0,0,0,15.39,131.76Z"/><path class="cls-3" d="M58.61,121.88c1.67,0,3.35,0,5,0,1.36,0,1.82.51,2.17,1.75a9.1,9.1,0,0,1-.39,5.27A16.26,16.26,0,0,1,62,135.16a6.67,6.67,0,0,1-5.47,2.61c-1.71-.1-1.48-.18-1.51,1.51a8.79,8.79,0,0,0,.43,3.34,2,2,0,0,0,3.13,1.1,14.69,14.69,0,0,0,3.12-3.08c.41-.48.78-1,1.17-1.49.23-.29.43-.27.48.11q.16,1.49.27,3a1,1,0,0,1-.21.56A24,24,0,0,1,58,148.91a5.36,5.36,0,0,1-3.18,1.17,3.34,3.34,0,0,1-3.32-2.81,40.11,40.11,0,0,1-.57-7c0-.33.17-.9-.22-.95s-.32.54-.44.86l-2,5.49c-.35,1-.7,2-1,3a.94.94,0,0,1-1,.76c-1,0-1.94,0-2.92,0-.52,0-.61-.21-.44-.68.62-1.76,1.21-3.54,1.84-5.3q2-5.55,4-11.09,1.75-5,3.48-9.9a.72.72,0,0,1,.82-.53c1.86,0,3.71,0,5.57,0Zm-3.08,11.29h2a1.86,1.86,0,0,0,1.37-.46,6.84,6.84,0,0,0,2.35-5.27c0-.88-.4-1.22-1.28-1.23-1.42,0-2.84,0-4.27,0a.84.84,0,0,0-.87.58c-.82,1.87-1.23,3.87-2,5.75-.21.49,0,.65.5.64Z"/><path class="cls-3" d="M87.86,129.85a5,5,0,0,0-.86,1.92c-1.37,3.87-2.72,7.76-4.06,11.64-.61,1.75-1.2,3.5-1.79,5.25a.88.88,0,0,1-.94.71c-.42,0-.85,0-1.28,0s-.67-.21-.49-.72q1.07-3,2.07-5.93c.82-2.44,1.74-4.83,2.51-7.28.45-1.43,1.09-2.81,1.59-4.24,1-2.81,2-5.61,3-8.43a1.1,1.1,0,0,1,1.26-.9c1.27.06,2.54,0,3.8,0,.54,0,.71.17.66.72-.24,2.58-.43,5.17-.65,7.76-.25,3-.52,6-.77,9-.06.71-.08,1.43-.13,2.3a4.21,4.21,0,0,0,.8-1.66c1.54-4.8,3.29-9.52,4.94-14.27.37-1.06.81-2.11,1.13-3.19a1,1,0,0,1,1-.78c1.87-.07,1.93,0,1.33,1.71-1.53,4.39-3,8.78-4.6,13.16-1.15,3.27-2.35,6.53-3.53,9.8-.26.73-.53,1.45-.75,2.18a.81.81,0,0,1-.89.65c-1.4,0-2.8,0-4.2,0-.59,0-.75-.23-.7-.77q.28-3.24.55-6.48c.17-1.84.34-3.69.5-5.53l.51-6.14C87.87,130.27,87.86,130.16,87.86,129.85Z"/><path class="cls-3" d="M112.87,144.68a22.56,22.56,0,0,1,1.09-5.46c1.68-5.25,3.66-10.39,5.4-15.61.15-.45.34-.89.48-1.34a.61.61,0,0,1,.68-.44c1.22,0,2.44,0,3.65,0,.73,0,.79.15.54.83-1.61,4.51-3.24,9-4.82,13.52a16.23,16.23,0,0,0-1.1,4.67c0,.84-.08,1.72.75,2.25a2.57,2.57,0,0,0,2.65,0,7.41,7.41,0,0,0,3.11-3.3,39.68,39.68,0,0,0,2.52-6.2c1.32-3.71,2.64-7.41,3.93-11.12a.8.8,0,0,1,.91-.6c1.72,0,1.74,0,1.18,1.57-1.79,5.11-3.56,10.23-5.41,15.32a23.2,23.2,0,0,1-5.09,8.39,8.75,8.75,0,0,1-5.37,2.77,4.33,4.33,0,0,1-4.3-1.56A5.85,5.85,0,0,1,112.87,144.68Z"/><path class="cls-3" d="M112.73,135.46a26.68,26.68,0,0,1-1.1,3.44c-1.09,3.16-2.22,6.3-3.32,9.45a1.48,1.48,0,0,1-1.93.92.35.35,0,0,1-.25-.42,4.21,4.21,0,0,0,.11-.6c0-.29.42-.64.1-.84s-.47.26-.69.44A10.11,10.11,0,0,1,102,149.9a3.72,3.72,0,0,1-4.46-1.62,6.53,6.53,0,0,1-.67-2.39,18,18,0,0,1,.51-6,37.09,37.09,0,0,1,2.89-8.23c1.84-3.74,4.09-7.18,7.64-9.56a5.36,5.36,0,0,1,4.12-.91A3.55,3.55,0,0,1,115,123.8a10.69,10.69,0,0,1,0,5c-.09.54-.24,1.06-.37,1.58a3.75,3.75,0,0,1-2,1.59c-.35,0-.21-.26-.2-.45a15.19,15.19,0,0,0,0-2.78,2.25,2.25,0,0,0-2.68-2.27,2.87,2.87,0,0,0-1.65.87,15,15,0,0,0-3.45,5,23.89,23.89,0,0,0-2.46,8.47,4.49,4.49,0,0,0,.27,1.93,1.75,1.75,0,0,0,2.29,1,6.64,6.64,0,0,0,4.7-4.8C109.93,137.16,111.11,136.26,112.73,135.46Z"/><path class="cls-3" d="M158,121.88h5a1.93,1.93,0,0,1,2.19,1.67,7,7,0,0,1,.11,3,16.08,16.08,0,0,1-4.37,9.27,6.09,6.09,0,0,1-4.54,2c-1.76,0-3.52,0-5.28,0-.58,0-.82.23-1,.78-.57,1.73-1.22,3.44-1.83,5.17s-1.14,3.18-1.66,4.79a1,1,0,0,1-1.15.82c-.79,0-1.58,0-2.37,0s-.82-.11-.56-.85q1.23-3.51,2.48-7,2.39-6.81,4.79-13.61c.6-1.73,1.23-3.44,1.81-5.18a.94.94,0,0,1,1.06-.77C154.52,121.9,156.28,121.88,158,121.88ZM155,133.25h1.35a2.81,2.81,0,0,0,2.13-.47,6.91,6.91,0,0,0,2.39-5.45c0-.8-.47-1.18-1.29-1.19-1.49,0-3,0-4.47,0a.66.66,0,0,0-.72.48c-.69,2-1.38,4-2.09,6-.16.46,0,.64.46.63Z"/><path class="cls-3" d="M175,121.75h5.36c.75,0,.8.06.55.78-.39,1.16-.82,2.3-1.19,3.46a.8.8,0,0,1-.89.63c-2.15,0-4.3,0-6.44,0a1.05,1.05,0,0,0-1.21.87c-.48,1.55-1,3.08-1.55,4.63-.27.81-.19.91.7.91h5.56c.88,0,.93.1.61.95-.39,1-.78,2-1.1,3.05a.93.93,0,0,1-1,.74c-2,0-4,0-6,0a1,1,0,0,0-1.17.83c-.52,1.61-1.11,3.2-1.68,4.8-.29.81-.16,1,.74,1h5.9c1,0,1.06.08.72,1.05s-.75,2.08-1.11,3.13a.82.82,0,0,1-.88.66c-3.58,0-7.15,0-10.72,0-.6,0-.69-.23-.51-.74,1.09-3.06,2.2-6.11,3.24-9.18,1.12-3.33,2.3-6.65,3.45-10,.82-2.36,1.6-4.74,2.49-7.08.15-.42.42-.47.79-.47Z"/><path class="cls-3" d="M70,143.28c-.82,0-1.63,0-2.44,0a.84.84,0,0,0-.86.52c-.85,1.64-1.73,3.27-2.56,4.92a1,1,0,0,1-1,.59c-2.21,0-1.91.07-1-1.64,2.22-4.24,4.5-8.45,6.75-12.68,1.75-3.28,3.49-6.58,5.24-9.87.48-.92,1-1.83,1.44-2.75a.81.81,0,0,1,.81-.49c1.49,0,3,0,4.48,0,.52,0,.66.18.57.7-.74,4.27-1.45,8.55-2.18,12.82s-1.5,8.82-2.24,13.22c-.07.47-.26.69-.73.68H72.72c-.5,0-.69-.17-.58-.7.3-1.53.53-3.07.84-4.6.11-.56,0-.73-.59-.71-.81,0-1.63,0-2.44,0Zm6.39-17.64-.19-.09c-.34.62-.69,1.24-1,1.87-1.6,3.08-3.19,6.18-4.81,9.25-.3.56-.12.67.4.66.91,0,1.82-.05,2.72,0,.71,0,.89-.35,1-.91.17-1,.33-2.05.51-3.07C75.4,130.79,75.87,128.21,76.34,125.64Z"/><path class="cls-3" d="M134,143.21h-2.51a.84.84,0,0,0-.84.54c-.87,1.71-1.79,3.39-2.67,5.09a.77.77,0,0,1-.76.46c-.38,0-.77,0-1.15,0-.63,0-.71-.18-.42-.74q2.31-4.34,4.61-8.68c1.62-3.07,3.21-6.16,4.83-9.24,1.45-2.74,2.91-5.46,4.36-8.19a1,1,0,0,1,1-.57c1.4,0,2.8,0,4.21,0,.7,0,.81.13.69.86-.29,1.74-.61,3.47-.9,5.2-.83,4.88-1.64,9.76-2.47,14.64-.34,2-.71,4-1,5.94a.79.79,0,0,1-.91.77h-3.12c-.61,0-.73-.31-.63-.83.27-1.41.53-2.84.82-4.25.19-.9.12-1-.77-1ZM140.14,126a4.66,4.66,0,0,0-1,1.55c-1.55,3-3.09,5.92-4.62,8.88-.35.69-.27.8.53.8s1.49,0,2.23,0,1-.25,1.09-.92c.46-2.64,1-5.28,1.42-7.92A9.53,9.53,0,0,0,140.14,126Z"/><path class="cls-3" d="M34.45,143.21H32a.82.82,0,0,0-.85.51c-.83,1.64-1.69,3.25-2.55,4.87a2.26,2.26,0,0,1-2.43.63c-.34-.25-.12-.54,0-.79.82-1.56,1.66-3.11,2.48-4.66q3.64-6.86,7.27-13.71,2-3.82,4.05-7.66a.79.79,0,0,1,.78-.52c1.49,0,3,0,4.48,0,.61,0,.67.33.59.79-.24,1.42-.49,2.85-.74,4.27-.42,2.38-.85,4.76-1.25,7.14-.46,2.67-.9,5.34-1.35,8-.37,2.16-.76,4.32-1.1,6.48a.74.74,0,0,1-.86.73c-1,0-2.08,0-3.12,0-.63,0-.77-.28-.66-.84.28-1.51.52-3,.81-4.53.12-.63-.14-.75-.68-.73-.81,0-1.63,0-2.44,0Zm6.34-17.36-.17,0a2.55,2.55,0,0,0-.26.38c-.74,1.39-1.47,2.79-2.21,4.19-1.06,2-2.13,4.07-3.19,6.12-.38.73-.3.83.54.84s1.62,0,2.44,0a.74.74,0,0,0,.9-.73c.51-2.86,1-5.72,1.57-8.58C40.55,127.3,40.66,126.57,40.79,125.85Z"/><path class="cls-2" d="M57.93,95.87a10.52,10.52,0,0,1-7-2.46,13.64,13.64,0,0,1-3.38-4.28,19.76,19.76,0,0,1-2.11-6.82,9.87,9.87,0,0,1,2-7.2,13.76,13.76,0,0,1,7.62-4.85,20.25,20.25,0,0,1,6.68-.92,9.06,9.06,0,0,1,7.38,4,15.4,15.4,0,0,1,2.42,7.15,17.51,17.51,0,0,1,0,4.85,11.4,11.4,0,0,1-6.17,8.8A16.54,16.54,0,0,1,57.93,95.87Z"/><path class="cls-2" d="M46.79,41.31a10,10,0,0,1,2.62-7.13A11.4,11.4,0,0,1,54.83,31a20.83,20.83,0,0,1,8-.83A8.93,8.93,0,0,1,71,37.71a17.43,17.43,0,0,1,.21,5.67c-.62,4.83-3.24,8.6-8.2,10.19A13.92,13.92,0,0,1,55,54a9.4,9.4,0,0,1-5.38-4A18.23,18.23,0,0,1,46.79,41.31Z"/><path class="cls-2" d="M219.94,44.61a10.38,10.38,0,0,1,3.17-8.16,12,12,0,0,1,5.6-2.88,17.87,17.87,0,0,1,4.49-.88,8,8,0,0,1,6,2.74,16.47,16.47,0,0,1,4,9.91A27.76,27.76,0,0,1,241.49,57a42.45,42.45,0,0,1-1.73,4.33,1.24,1.24,0,0,1-1.22.77,22.16,22.16,0,0,1-7.76-.91,14.42,14.42,0,0,1-8.22-6.66A20.4,20.4,0,0,1,219.94,44.61Z"/><path class="cls-2" d="M55.53,133.17H53.37c-.48,0-.71-.15-.5-.64.77-1.88,1.18-3.88,2-5.75a.84.84,0,0,1,.87-.58c1.43,0,2.85,0,4.27,0,.88,0,1.26.35,1.28,1.23a6.84,6.84,0,0,1-2.35,5.27,1.86,1.86,0,0,1-1.37.46Z"/><path class="cls-2" d="M155,133.25h-2.24c-.46,0-.62-.17-.46-.63.71-2,1.4-4,2.09-6a.66.66,0,0,1,.72-.48c1.49,0,3,0,4.47,0,.82,0,1.27.39,1.29,1.19a6.91,6.91,0,0,1-2.39,5.45,2.81,2.81,0,0,1-2.13.47Z"/><path class="cls-2" d="M76.34,125.64c-.47,2.57-.94,5.15-1.4,7.72-.18,1-.34,2-.51,3.07-.1.56-.28,1-1,.91-.9-.06-1.81,0-2.72,0-.52,0-.7-.1-.4-.66,1.62-3.07,3.21-6.17,4.81-9.25.33-.63.68-1.25,1-1.87Z"/><path class="cls-2" d="M140.14,126a9.53,9.53,0,0,1-.34,2.41c-.43,2.64-1,5.28-1.42,7.92-.11.67-.36,1-1.09.92s-1.49,0-2.23,0-.88-.11-.53-.8c1.53-3,3.07-5.93,4.62-8.88A4.66,4.66,0,0,1,140.14,126Z"/><path class="cls-2" d="M40.79,125.85c-.13.72-.24,1.45-.38,2.18-.52,2.86-1.06,5.72-1.57,8.58a.74.74,0,0,1-.9.73c-.82,0-1.63,0-2.44,0s-.92-.11-.54-.84c1.06-2.05,2.13-4.08,3.19-6.12.74-1.4,1.47-2.8,2.21-4.19a2.55,2.55,0,0,1,.26-.38Z"/></svg>