<?xml version="1.0" standalone="no"?><svg xmlns="http://www.w3.org/2000/svg" viewBox="0 0 1440 320"><path fill="#1D9608" fill-opacity="1" d="M0,64L24,74.7C48,85,96,107,144,101.3C192,96,240,64,288,80C336,96,384,160,432,202.7C480,245,528,267,576,234.7C624,203,672,117,720,112C768,107,816,181,864,202.7C912,224,960,192,1008,170.7C1056,149,1104,139,1152,117.3C1200,96,1248,64,1296,48C1344,32,1392,32,1416,32L1440,32L1440,320L1416,320C1392,320,1344,320,1296,320C1248,320,1200,320,1152,320C1104,320,1056,320,1008,320C960,320,912,320,864,320C816,320,768,320,720,320C672,320,624,320,576,320C528,320,480,320,432,320C384,320,336,320,288,320C240,320,192,320,144,320C96,320,48,320,24,320L0,320Z"></path></svg>